<?xml version="1.0" encoding="utf-8"?>
<svg viewBox="85.014 89.3065 64 64.0005" xmlns="http://www.w3.org/2000/svg">
  <path d="M 90.882 96.045 L 112.853 100.597 C 112.853 100.597 116.057 101.263 116.057 101.263 L 145.92 107.45 C 146.019 107.471 146.12 107.481 146.21 107.481 C 146.911 107.481 147.543 106.971 147.681 106.221 C 147.842 105.377 147.311 104.554 146.501 104.388 L 125.08 99.951 L 126.362 93.274 C 126.522 92.432 125.992 91.609 125.181 91.442 L 115.006 89.338 C 114.616 89.255 114.204 89.338 113.874 89.567 C 113.544 89.796 113.314 90.151 113.234 90.557 L 111.952 97.232 L 91.463 92.994 C 90.652 92.827 89.861 93.38 89.701 94.223 C 89.54 95.066 90.071 95.889 90.882 96.056 L 90.882 96.045 Z" style="fill: rgb(55, 118, 100);"/>
  <path d="M 117.219 115.521 C 115.127 115.521 113.324 117.072 112.924 119.208 L 112.693 120.448 L 121.735 120.448 L 121.505 119.208 C 121.104 117.072 119.303 115.521 117.209 115.521 L 117.219 115.521 Z" style="fill: rgb(55, 118, 100);"/>
  <path d="M 85.014 132.851 C 85.014 135.371 86.987 137.424 89.41 137.424 L 92.945 137.424 L 92.945 128.279 L 89.41 128.279 C 86.987 128.279 85.014 130.331 85.014 132.851 Z" style="fill: rgb(55, 118, 100);"/>
  <path d="M 138.84 121.978 L 95.158 121.978 C 94.607 121.978 94.157 122.447 94.157 123.02 L 94.157 144.454 C 94.157 149.338 97.972 153.307 102.67 153.307 L 131.33 153.307 C 136.026 153.307 139.842 149.338 139.842 144.454 L 139.842 123.02 C 139.842 122.447 139.391 121.978 138.84 121.978 Z" style="fill: rgb(55, 118, 100);"/>
  <path d="M 144.618 128.279 L 141.083 128.279 L 141.083 137.424 L 144.618 137.424 C 147.041 137.424 149.014 135.371 149.014 132.851 C 149.014 130.331 147.041 128.279 144.618 128.279 Z" style="fill: rgb(55, 118, 100);"/>
  <path d="M 126.242 112.168 C 126.242 113.647 127.403 114.854 128.826 114.854 C 130.248 114.854 131.409 113.647 131.409 112.168 C 131.409 110.689 130.248 109.481 128.826 109.481 C 127.403 109.481 126.242 110.689 126.242 112.168 Z" style="fill: rgb(55, 118, 100);"/>
  <circle cx="133.5" cy="132.465" r="7.731" style="fill: rgb(55, 118, 100);" transform="matrix(0.43784600496292114, 0, 0, 0.4553689956665039, 47.790939331054695, 48.639163970947266)"/>
</svg>